<mxfile host="Electron" agent="Mozilla/5.0 (Windows NT 10.0; Win64; x64) AppleWebKit/537.36 (KHTML, like Gecko) draw.io/26.0.4 Chrome/128.0.6613.186 Electron/32.2.5 Safari/537.36" version="26.0.4" pages="3">
  <diagram name="Gioco-11-basic" id="nITLRNRX0it9IIfdgYy6">
    <mxGraphModel dx="3160" dy="1380" grid="1" gridSize="10" guides="1" tooltips="1" connect="1" arrows="1" fold="1" page="1" pageScale="1" pageWidth="827" pageHeight="1169" math="0" shadow="0">
      <root>
        <mxCell id="0" />
        <mxCell id="1" parent="0" />
        <mxCell id="puIySypTSIMgb-tg57lY-1" style="edgeStyle=orthogonalEdgeStyle;rounded=0;orthogonalLoop=1;jettySize=auto;html=1;exitX=0.5;exitY=1;exitDx=0;exitDy=0;exitPerimeter=0;" edge="1" parent="1" source="ydHHLo_HtunqcIbkE-GD-1" target="ydHHLo_HtunqcIbkE-GD-3">
          <mxGeometry relative="1" as="geometry" />
        </mxCell>
        <mxCell id="ydHHLo_HtunqcIbkE-GD-1" value="&lt;font style=&quot;font-size: 16px;&quot;&gt;Start&lt;/font&gt;" style="strokeWidth=2;html=1;shape=mxgraph.flowchart.start_1;whiteSpace=wrap;" parent="1" vertex="1">
          <mxGeometry x="160" y="40" width="100" height="60" as="geometry" />
        </mxCell>
        <mxCell id="ydHHLo_HtunqcIbkE-GD-2" value="&lt;font style=&quot;font-size: 16px;&quot;&gt;End&lt;/font&gt;" style="strokeWidth=2;html=1;shape=mxgraph.flowchart.terminator;whiteSpace=wrap;" parent="1" vertex="1">
          <mxGeometry x="880" y="810" width="100" height="60" as="geometry" />
        </mxCell>
        <mxCell id="puIySypTSIMgb-tg57lY-3" style="edgeStyle=orthogonalEdgeStyle;rounded=0;orthogonalLoop=1;jettySize=auto;html=1;" edge="1" parent="1" source="ydHHLo_HtunqcIbkE-GD-3" target="puIySypTSIMgb-tg57lY-2">
          <mxGeometry relative="1" as="geometry" />
        </mxCell>
        <mxCell id="ydHHLo_HtunqcIbkE-GD-3" value="&lt;font style=&quot;font-size: 16px;&quot;&gt;num_fiammiferi = 11&lt;/font&gt;" style="shape=parallelogram;html=1;strokeWidth=2;perimeter=parallelogramPerimeter;whiteSpace=wrap;rounded=1;arcSize=12;size=0.23;" parent="1" vertex="1">
          <mxGeometry x="105" y="130" width="210" height="80" as="geometry" />
        </mxCell>
        <mxCell id="puIySypTSIMgb-tg57lY-5" style="edgeStyle=orthogonalEdgeStyle;rounded=0;orthogonalLoop=1;jettySize=auto;html=1;entryX=0.5;entryY=0;entryDx=0;entryDy=0;" edge="1" parent="1" source="puIySypTSIMgb-tg57lY-2" target="puIySypTSIMgb-tg57lY-4">
          <mxGeometry relative="1" as="geometry" />
        </mxCell>
        <mxCell id="puIySypTSIMgb-tg57lY-2" value="&lt;font style=&quot;font-size: 16px;&quot;&gt;mano_attuale = 1&lt;/font&gt;" style="shape=parallelogram;html=1;strokeWidth=2;perimeter=parallelogramPerimeter;whiteSpace=wrap;rounded=1;arcSize=12;size=0.23;" vertex="1" parent="1">
          <mxGeometry x="110" y="240" width="200" height="80" as="geometry" />
        </mxCell>
        <mxCell id="puIySypTSIMgb-tg57lY-8" style="edgeStyle=orthogonalEdgeStyle;rounded=0;orthogonalLoop=1;jettySize=auto;html=1;entryX=0.5;entryY=0;entryDx=0;entryDy=0;" edge="1" parent="1" source="puIySypTSIMgb-tg57lY-4" target="puIySypTSIMgb-tg57lY-7">
          <mxGeometry relative="1" as="geometry" />
        </mxCell>
        <mxCell id="puIySypTSIMgb-tg57lY-4" value="&lt;font style=&quot;font-size: 16px;&quot;&gt;fiammiferi = &quot;inserisci un numero da 1 a 3&quot;&lt;/font&gt;" style="html=1;strokeWidth=2;shape=manualInput;whiteSpace=wrap;rounded=1;size=26;arcSize=11;" vertex="1" parent="1">
          <mxGeometry x="85" y="360" width="250" height="100" as="geometry" />
        </mxCell>
        <mxCell id="puIySypTSIMgb-tg57lY-12" style="edgeStyle=orthogonalEdgeStyle;rounded=0;orthogonalLoop=1;jettySize=auto;html=1;entryX=0.5;entryY=0;entryDx=0;entryDy=0;" edge="1" parent="1" source="puIySypTSIMgb-tg57lY-7" target="puIySypTSIMgb-tg57lY-9">
          <mxGeometry relative="1" as="geometry" />
        </mxCell>
        <mxCell id="puIySypTSIMgb-tg57lY-7" value="&lt;font style=&quot;font-size: 16px;&quot;&gt;num_fiammiferi = num_fiammiferi - fiammiferi&lt;/font&gt;" style="shape=parallelogram;html=1;strokeWidth=2;perimeter=parallelogramPerimeter;whiteSpace=wrap;rounded=1;arcSize=12;size=0.23;" vertex="1" parent="1">
          <mxGeometry x="-27.5" y="520" width="475" height="90" as="geometry" />
        </mxCell>
        <mxCell id="puIySypTSIMgb-tg57lY-9" value="&lt;font style=&quot;font-size: 16px;&quot;&gt;mano_attuale = mano_attuale + 1&lt;/font&gt;" style="shape=parallelogram;html=1;strokeWidth=2;perimeter=parallelogramPerimeter;whiteSpace=wrap;rounded=1;arcSize=12;size=0.23;" vertex="1" parent="1">
          <mxGeometry x="-10" y="658" width="440" height="80" as="geometry" />
        </mxCell>
        <mxCell id="puIySypTSIMgb-tg57lY-16" style="edgeStyle=orthogonalEdgeStyle;rounded=0;orthogonalLoop=1;jettySize=auto;html=1;entryX=0;entryY=0.5;entryDx=0;entryDy=0;exitX=0;exitY=0.5;exitDx=0;exitDy=0;exitPerimeter=0;" edge="1" parent="1" source="puIySypTSIMgb-tg57lY-13" target="puIySypTSIMgb-tg57lY-4">
          <mxGeometry relative="1" as="geometry">
            <Array as="points">
              <mxPoint x="85" y="845" />
              <mxPoint x="-160" y="845" />
              <mxPoint x="-160" y="410" />
            </Array>
          </mxGeometry>
        </mxCell>
        <mxCell id="puIySypTSIMgb-tg57lY-18" value="&lt;font style=&quot;font-size: 16px;&quot;&gt;True&lt;/font&gt;" style="edgeLabel;html=1;align=center;verticalAlign=middle;resizable=0;points=[];" vertex="1" connectable="0" parent="puIySypTSIMgb-tg57lY-16">
          <mxGeometry x="-0.8862" y="1" relative="1" as="geometry">
            <mxPoint x="-80" as="offset" />
          </mxGeometry>
        </mxCell>
        <mxCell id="puIySypTSIMgb-tg57lY-13" value="&lt;font style=&quot;font-size: 16px;&quot;&gt;num_fiammiferi &amp;gt; 1?&lt;/font&gt;" style="strokeWidth=2;html=1;shape=mxgraph.flowchart.decision;whiteSpace=wrap;" vertex="1" parent="1">
          <mxGeometry x="75" y="790" width="270" height="110" as="geometry" />
        </mxCell>
        <mxCell id="puIySypTSIMgb-tg57lY-14" style="edgeStyle=orthogonalEdgeStyle;rounded=0;orthogonalLoop=1;jettySize=auto;html=1;entryX=0.5;entryY=0;entryDx=0;entryDy=0;entryPerimeter=0;" edge="1" parent="1" source="puIySypTSIMgb-tg57lY-9" target="puIySypTSIMgb-tg57lY-13">
          <mxGeometry relative="1" as="geometry" />
        </mxCell>
        <mxCell id="puIySypTSIMgb-tg57lY-29" style="edgeStyle=orthogonalEdgeStyle;rounded=0;orthogonalLoop=1;jettySize=auto;html=1;entryX=0.5;entryY=1;entryDx=0;entryDy=0;" edge="1" parent="1" source="puIySypTSIMgb-tg57lY-20" target="puIySypTSIMgb-tg57lY-23">
          <mxGeometry relative="1" as="geometry" />
        </mxCell>
        <mxCell id="puIySypTSIMgb-tg57lY-30" value="&lt;font style=&quot;font-size: 16px;&quot;&gt;True&lt;/font&gt;" style="edgeLabel;html=1;align=center;verticalAlign=middle;resizable=0;points=[];" vertex="1" connectable="0" parent="puIySypTSIMgb-tg57lY-29">
          <mxGeometry x="-0.2661" y="-1" relative="1" as="geometry">
            <mxPoint as="offset" />
          </mxGeometry>
        </mxCell>
        <mxCell id="puIySypTSIMgb-tg57lY-20" value="&lt;span style=&quot;font-size: 16px;&quot;&gt;mano_attuale Ã¨ pari?&lt;/span&gt;" style="strokeWidth=2;html=1;shape=mxgraph.flowchart.decision;whiteSpace=wrap;" vertex="1" parent="1">
          <mxGeometry x="490" y="795" width="210" height="100" as="geometry" />
        </mxCell>
        <mxCell id="puIySypTSIMgb-tg57lY-21" style="edgeStyle=orthogonalEdgeStyle;rounded=0;orthogonalLoop=1;jettySize=auto;html=1;entryX=0;entryY=0.5;entryDx=0;entryDy=0;entryPerimeter=0;" edge="1" parent="1" source="puIySypTSIMgb-tg57lY-13" target="puIySypTSIMgb-tg57lY-20">
          <mxGeometry relative="1" as="geometry" />
        </mxCell>
        <mxCell id="puIySypTSIMgb-tg57lY-22" value="&lt;font style=&quot;font-size: 16px;&quot;&gt;False&lt;/font&gt;" style="edgeLabel;html=1;align=center;verticalAlign=middle;resizable=0;points=[];" vertex="1" connectable="0" parent="puIySypTSIMgb-tg57lY-21">
          <mxGeometry x="-0.1077" relative="1" as="geometry">
            <mxPoint as="offset" />
          </mxGeometry>
        </mxCell>
        <mxCell id="puIySypTSIMgb-tg57lY-33" style="edgeStyle=orthogonalEdgeStyle;rounded=0;orthogonalLoop=1;jettySize=auto;html=1;exitX=1;exitY=0.5;exitDx=0;exitDy=0;" edge="1" parent="1" source="puIySypTSIMgb-tg57lY-23" target="ydHHLo_HtunqcIbkE-GD-2">
          <mxGeometry relative="1" as="geometry" />
        </mxCell>
        <mxCell id="puIySypTSIMgb-tg57lY-23" value="&lt;font style=&quot;font-size: 16px;&quot;&gt;Vince G1&lt;/font&gt;" style="html=1;strokeWidth=2;shape=manualInput;whiteSpace=wrap;rounded=1;size=26;arcSize=11;" vertex="1" parent="1">
          <mxGeometry x="545" y="640" width="100" height="60" as="geometry" />
        </mxCell>
        <mxCell id="puIySypTSIMgb-tg57lY-26" value="&lt;font style=&quot;font-size: 16px;&quot;&gt;Vince G2&lt;/font&gt;" style="html=1;strokeWidth=2;shape=manualInput;whiteSpace=wrap;rounded=1;size=26;arcSize=11;" vertex="1" parent="1">
          <mxGeometry x="545" y="960" width="100" height="60" as="geometry" />
        </mxCell>
        <mxCell id="puIySypTSIMgb-tg57lY-27" style="edgeStyle=orthogonalEdgeStyle;rounded=0;orthogonalLoop=1;jettySize=auto;html=1;exitX=0.5;exitY=1;exitDx=0;exitDy=0;" edge="1" parent="1" source="puIySypTSIMgb-tg57lY-26" target="puIySypTSIMgb-tg57lY-26">
          <mxGeometry relative="1" as="geometry" />
        </mxCell>
        <mxCell id="puIySypTSIMgb-tg57lY-31" style="edgeStyle=orthogonalEdgeStyle;rounded=0;orthogonalLoop=1;jettySize=auto;html=1;entryX=0.517;entryY=0.192;entryDx=0;entryDy=0;entryPerimeter=0;" edge="1" parent="1" source="puIySypTSIMgb-tg57lY-20" target="puIySypTSIMgb-tg57lY-26">
          <mxGeometry relative="1" as="geometry" />
        </mxCell>
        <mxCell id="puIySypTSIMgb-tg57lY-32" value="&lt;font style=&quot;font-size: 16px;&quot;&gt;False&lt;/font&gt;" style="edgeLabel;html=1;align=center;verticalAlign=middle;resizable=0;points=[];" vertex="1" connectable="0" parent="puIySypTSIMgb-tg57lY-31">
          <mxGeometry x="-0.3459" relative="1" as="geometry">
            <mxPoint as="offset" />
          </mxGeometry>
        </mxCell>
        <mxCell id="puIySypTSIMgb-tg57lY-34" style="edgeStyle=orthogonalEdgeStyle;rounded=0;orthogonalLoop=1;jettySize=auto;html=1;entryX=0.5;entryY=1;entryDx=0;entryDy=0;entryPerimeter=0;" edge="1" parent="1" source="puIySypTSIMgb-tg57lY-26" target="ydHHLo_HtunqcIbkE-GD-2">
          <mxGeometry relative="1" as="geometry" />
        </mxCell>
      </root>
    </mxGraphModel>
  </diagram>
  <diagram name="Gioco-11-IRL" id="3XqDNQ9mmYwyKz1ZbkB2">
    <mxGraphModel dx="2327" dy="887" grid="1" gridSize="10" guides="1" tooltips="1" connect="1" arrows="1" fold="1" page="1" pageScale="1" pageWidth="827" pageHeight="1169" math="0" shadow="0">
      <root>
        <mxCell id="5AyftZAbdrbTaBpioSLw-0" />
        <mxCell id="5AyftZAbdrbTaBpioSLw-1" parent="5AyftZAbdrbTaBpioSLw-0" />
        <mxCell id="5AyftZAbdrbTaBpioSLw-2" style="edgeStyle=orthogonalEdgeStyle;rounded=0;orthogonalLoop=1;jettySize=auto;html=1;exitX=0.5;exitY=1;exitDx=0;exitDy=0;exitPerimeter=0;" edge="1" parent="5AyftZAbdrbTaBpioSLw-1" source="5AyftZAbdrbTaBpioSLw-3" target="5AyftZAbdrbTaBpioSLw-6">
          <mxGeometry relative="1" as="geometry" />
        </mxCell>
        <mxCell id="5AyftZAbdrbTaBpioSLw-3" value="&lt;font style=&quot;font-size: 16px;&quot;&gt;Start&lt;/font&gt;" style="strokeWidth=2;html=1;shape=mxgraph.flowchart.start_1;whiteSpace=wrap;" vertex="1" parent="5AyftZAbdrbTaBpioSLw-1">
          <mxGeometry x="160" y="40" width="100" height="60" as="geometry" />
        </mxCell>
        <mxCell id="5AyftZAbdrbTaBpioSLw-4" value="&lt;font style=&quot;font-size: 16px;&quot;&gt;End&lt;/font&gt;" style="strokeWidth=2;html=1;shape=mxgraph.flowchart.terminator;whiteSpace=wrap;" vertex="1" parent="5AyftZAbdrbTaBpioSLw-1">
          <mxGeometry x="880" y="1390" width="100" height="60" as="geometry" />
        </mxCell>
        <mxCell id="5AyftZAbdrbTaBpioSLw-5" style="edgeStyle=orthogonalEdgeStyle;rounded=0;orthogonalLoop=1;jettySize=auto;html=1;" edge="1" parent="5AyftZAbdrbTaBpioSLw-1" source="5AyftZAbdrbTaBpioSLw-6" target="5AyftZAbdrbTaBpioSLw-8">
          <mxGeometry relative="1" as="geometry" />
        </mxCell>
        <mxCell id="5AyftZAbdrbTaBpioSLw-6" value="&lt;font style=&quot;font-size: 16px;&quot;&gt;num_fiammiferi = 11&lt;/font&gt;" style="shape=parallelogram;html=1;strokeWidth=2;perimeter=parallelogramPerimeter;whiteSpace=wrap;rounded=1;arcSize=12;size=0.23;" vertex="1" parent="5AyftZAbdrbTaBpioSLw-1">
          <mxGeometry x="105" y="130" width="210" height="80" as="geometry" />
        </mxCell>
        <mxCell id="5AyftZAbdrbTaBpioSLw-7" style="edgeStyle=orthogonalEdgeStyle;rounded=0;orthogonalLoop=1;jettySize=auto;html=1;entryX=0.5;entryY=0;entryDx=0;entryDy=0;" edge="1" parent="5AyftZAbdrbTaBpioSLw-1" source="5AyftZAbdrbTaBpioSLw-8" target="5AyftZAbdrbTaBpioSLw-10">
          <mxGeometry relative="1" as="geometry" />
        </mxCell>
        <mxCell id="5AyftZAbdrbTaBpioSLw-8" value="&lt;font style=&quot;font-size: 16px;&quot;&gt;mano_attuale = 1&lt;/font&gt;" style="shape=parallelogram;html=1;strokeWidth=2;perimeter=parallelogramPerimeter;whiteSpace=wrap;rounded=1;arcSize=12;size=0.23;" vertex="1" parent="5AyftZAbdrbTaBpioSLw-1">
          <mxGeometry x="110" y="240" width="200" height="80" as="geometry" />
        </mxCell>
        <mxCell id="5AyftZAbdrbTaBpioSLw-10" value="&lt;font style=&quot;font-size: 16px;&quot;&gt;fiammiferi = &quot;inserisci un numero da pescare&quot;&lt;/font&gt;" style="html=1;strokeWidth=2;shape=manualInput;whiteSpace=wrap;rounded=1;size=26;arcSize=11;" vertex="1" parent="5AyftZAbdrbTaBpioSLw-1">
          <mxGeometry x="85" y="360" width="250" height="100" as="geometry" />
        </mxCell>
        <mxCell id="5AyftZAbdrbTaBpioSLw-11" style="edgeStyle=orthogonalEdgeStyle;rounded=0;orthogonalLoop=1;jettySize=auto;html=1;entryX=0.5;entryY=0;entryDx=0;entryDy=0;" edge="1" parent="5AyftZAbdrbTaBpioSLw-1" source="5AyftZAbdrbTaBpioSLw-12" target="5AyftZAbdrbTaBpioSLw-13">
          <mxGeometry relative="1" as="geometry" />
        </mxCell>
        <mxCell id="5AyftZAbdrbTaBpioSLw-12" value="&lt;font style=&quot;font-size: 16px;&quot;&gt;num_fiammiferi = num_fiammiferi - fiammiferi&lt;/font&gt;" style="shape=parallelogram;html=1;strokeWidth=2;perimeter=parallelogramPerimeter;whiteSpace=wrap;rounded=1;arcSize=12;size=0.23;" vertex="1" parent="5AyftZAbdrbTaBpioSLw-1">
          <mxGeometry x="-27.5" y="1100" width="475" height="90" as="geometry" />
        </mxCell>
        <mxCell id="5AyftZAbdrbTaBpioSLw-13" value="&lt;font style=&quot;font-size: 16px;&quot;&gt;mano_attuale = mano_attuale + 1&lt;/font&gt;" style="shape=parallelogram;html=1;strokeWidth=2;perimeter=parallelogramPerimeter;whiteSpace=wrap;rounded=1;arcSize=12;size=0.23;" vertex="1" parent="5AyftZAbdrbTaBpioSLw-1">
          <mxGeometry x="-10" y="1238" width="440" height="80" as="geometry" />
        </mxCell>
        <mxCell id="5AyftZAbdrbTaBpioSLw-14" style="edgeStyle=orthogonalEdgeStyle;rounded=0;orthogonalLoop=1;jettySize=auto;html=1;entryX=0;entryY=0.5;entryDx=0;entryDy=0;exitX=0;exitY=0.5;exitDx=0;exitDy=0;exitPerimeter=0;" edge="1" parent="5AyftZAbdrbTaBpioSLw-1" source="5AyftZAbdrbTaBpioSLw-16" target="5AyftZAbdrbTaBpioSLw-10">
          <mxGeometry relative="1" as="geometry">
            <Array as="points">
              <mxPoint x="75" y="1420" />
              <mxPoint x="-160" y="1420" />
              <mxPoint x="-160" y="410" />
            </Array>
          </mxGeometry>
        </mxCell>
        <mxCell id="5AyftZAbdrbTaBpioSLw-15" value="&lt;font style=&quot;font-size: 16px;&quot;&gt;False&lt;/font&gt;" style="edgeLabel;html=1;align=center;verticalAlign=middle;resizable=0;points=[];" vertex="1" connectable="0" parent="5AyftZAbdrbTaBpioSLw-14">
          <mxGeometry x="-0.8862" y="1" relative="1" as="geometry">
            <mxPoint x="-80" as="offset" />
          </mxGeometry>
        </mxCell>
        <mxCell id="5AyftZAbdrbTaBpioSLw-16" value="&lt;font style=&quot;font-size: 16px;&quot;&gt;num_fiammiferi == 1?&lt;/font&gt;" style="strokeWidth=2;html=1;shape=mxgraph.flowchart.decision;whiteSpace=wrap;" vertex="1" parent="5AyftZAbdrbTaBpioSLw-1">
          <mxGeometry x="75.01" y="1365" width="270" height="110" as="geometry" />
        </mxCell>
        <mxCell id="5AyftZAbdrbTaBpioSLw-17" style="edgeStyle=orthogonalEdgeStyle;rounded=0;orthogonalLoop=1;jettySize=auto;html=1;entryX=0.5;entryY=0;entryDx=0;entryDy=0;entryPerimeter=0;" edge="1" parent="5AyftZAbdrbTaBpioSLw-1" source="5AyftZAbdrbTaBpioSLw-13" target="5AyftZAbdrbTaBpioSLw-16">
          <mxGeometry relative="1" as="geometry" />
        </mxCell>
        <mxCell id="5AyftZAbdrbTaBpioSLw-18" style="edgeStyle=orthogonalEdgeStyle;rounded=0;orthogonalLoop=1;jettySize=auto;html=1;entryX=0.5;entryY=1;entryDx=0;entryDy=0;" edge="1" parent="5AyftZAbdrbTaBpioSLw-1" source="5AyftZAbdrbTaBpioSLw-20" target="5AyftZAbdrbTaBpioSLw-24">
          <mxGeometry relative="1" as="geometry" />
        </mxCell>
        <mxCell id="5AyftZAbdrbTaBpioSLw-19" value="&lt;font style=&quot;font-size: 16px;&quot;&gt;True&lt;/font&gt;" style="edgeLabel;html=1;align=center;verticalAlign=middle;resizable=0;points=[];" vertex="1" connectable="0" parent="5AyftZAbdrbTaBpioSLw-18">
          <mxGeometry x="-0.2661" y="-1" relative="1" as="geometry">
            <mxPoint as="offset" />
          </mxGeometry>
        </mxCell>
        <mxCell id="5AyftZAbdrbTaBpioSLw-20" value="&lt;span style=&quot;font-size: 16px;&quot;&gt;mano_attuale Ã¨ pari?&lt;/span&gt;" style="strokeWidth=2;html=1;shape=mxgraph.flowchart.decision;whiteSpace=wrap;" vertex="1" parent="5AyftZAbdrbTaBpioSLw-1">
          <mxGeometry x="490" y="1371" width="210" height="100" as="geometry" />
        </mxCell>
        <mxCell id="5AyftZAbdrbTaBpioSLw-21" style="edgeStyle=orthogonalEdgeStyle;rounded=0;orthogonalLoop=1;jettySize=auto;html=1;entryX=0;entryY=0.5;entryDx=0;entryDy=0;entryPerimeter=0;" edge="1" parent="5AyftZAbdrbTaBpioSLw-1" source="5AyftZAbdrbTaBpioSLw-16" target="5AyftZAbdrbTaBpioSLw-20">
          <mxGeometry relative="1" as="geometry" />
        </mxCell>
        <mxCell id="5AyftZAbdrbTaBpioSLw-22" value="&lt;font style=&quot;font-size: 16px;&quot;&gt;True&lt;/font&gt;" style="edgeLabel;html=1;align=center;verticalAlign=middle;resizable=0;points=[];" vertex="1" connectable="0" parent="5AyftZAbdrbTaBpioSLw-21">
          <mxGeometry x="-0.1077" relative="1" as="geometry">
            <mxPoint as="offset" />
          </mxGeometry>
        </mxCell>
        <mxCell id="5AyftZAbdrbTaBpioSLw-23" style="edgeStyle=orthogonalEdgeStyle;rounded=0;orthogonalLoop=1;jettySize=auto;html=1;exitX=1;exitY=0.5;exitDx=0;exitDy=0;" edge="1" parent="5AyftZAbdrbTaBpioSLw-1" source="5AyftZAbdrbTaBpioSLw-24" target="5AyftZAbdrbTaBpioSLw-4">
          <mxGeometry relative="1" as="geometry" />
        </mxCell>
        <mxCell id="5AyftZAbdrbTaBpioSLw-24" value="&lt;font style=&quot;font-size: 16px;&quot;&gt;Vince G1&lt;/font&gt;" style="html=1;strokeWidth=2;shape=manualInput;whiteSpace=wrap;rounded=1;size=26;arcSize=11;" vertex="1" parent="5AyftZAbdrbTaBpioSLw-1">
          <mxGeometry x="545" y="1220" width="100" height="60" as="geometry" />
        </mxCell>
        <mxCell id="5AyftZAbdrbTaBpioSLw-25" value="&lt;font style=&quot;font-size: 16px;&quot;&gt;Vince G2&lt;/font&gt;" style="html=1;strokeWidth=2;shape=manualInput;whiteSpace=wrap;rounded=1;size=26;arcSize=11;" vertex="1" parent="5AyftZAbdrbTaBpioSLw-1">
          <mxGeometry x="545" y="1540" width="100" height="60" as="geometry" />
        </mxCell>
        <mxCell id="5AyftZAbdrbTaBpioSLw-26" style="edgeStyle=orthogonalEdgeStyle;rounded=0;orthogonalLoop=1;jettySize=auto;html=1;exitX=0.5;exitY=1;exitDx=0;exitDy=0;" edge="1" parent="5AyftZAbdrbTaBpioSLw-1" source="5AyftZAbdrbTaBpioSLw-25" target="5AyftZAbdrbTaBpioSLw-25">
          <mxGeometry relative="1" as="geometry" />
        </mxCell>
        <mxCell id="5AyftZAbdrbTaBpioSLw-27" style="edgeStyle=orthogonalEdgeStyle;rounded=0;orthogonalLoop=1;jettySize=auto;html=1;entryX=0.517;entryY=0.192;entryDx=0;entryDy=0;entryPerimeter=0;" edge="1" parent="5AyftZAbdrbTaBpioSLw-1" source="5AyftZAbdrbTaBpioSLw-20" target="5AyftZAbdrbTaBpioSLw-25">
          <mxGeometry relative="1" as="geometry" />
        </mxCell>
        <mxCell id="5AyftZAbdrbTaBpioSLw-28" value="&lt;font style=&quot;font-size: 16px;&quot;&gt;False&lt;/font&gt;" style="edgeLabel;html=1;align=center;verticalAlign=middle;resizable=0;points=[];" vertex="1" connectable="0" parent="5AyftZAbdrbTaBpioSLw-27">
          <mxGeometry x="-0.3459" relative="1" as="geometry">
            <mxPoint as="offset" />
          </mxGeometry>
        </mxCell>
        <mxCell id="5AyftZAbdrbTaBpioSLw-29" style="edgeStyle=orthogonalEdgeStyle;rounded=0;orthogonalLoop=1;jettySize=auto;html=1;entryX=0.5;entryY=1;entryDx=0;entryDy=0;entryPerimeter=0;" edge="1" parent="5AyftZAbdrbTaBpioSLw-1" source="5AyftZAbdrbTaBpioSLw-25" target="5AyftZAbdrbTaBpioSLw-4">
          <mxGeometry relative="1" as="geometry" />
        </mxCell>
        <mxCell id="hY0oGXhMn6UQoCSrALOl-5" style="edgeStyle=orthogonalEdgeStyle;rounded=0;orthogonalLoop=1;jettySize=auto;html=1;entryX=0;entryY=0.5;entryDx=0;entryDy=0;" edge="1" parent="5AyftZAbdrbTaBpioSLw-1" source="hY0oGXhMn6UQoCSrALOl-1" target="hY0oGXhMn6UQoCSrALOl-4">
          <mxGeometry relative="1" as="geometry" />
        </mxCell>
        <mxCell id="hY0oGXhMn6UQoCSrALOl-6" value="&lt;font style=&quot;font-size: 16px;&quot;&gt;False&lt;/font&gt;" style="edgeLabel;html=1;align=center;verticalAlign=middle;resizable=0;points=[];" vertex="1" connectable="0" parent="hY0oGXhMn6UQoCSrALOl-5">
          <mxGeometry x="-0.3251" relative="1" as="geometry">
            <mxPoint x="26" as="offset" />
          </mxGeometry>
        </mxCell>
        <mxCell id="hY0oGXhMn6UQoCSrALOl-1" value="&lt;span style=&quot;font-size: 16px;&quot;&gt;fiammiferi Ã¨ un numero?&lt;/span&gt;" style="strokeWidth=2;html=1;shape=mxgraph.flowchart.decision;whiteSpace=wrap;" vertex="1" parent="5AyftZAbdrbTaBpioSLw-1">
          <mxGeometry x="75" y="515" width="270" height="110" as="geometry" />
        </mxCell>
        <mxCell id="hY0oGXhMn6UQoCSrALOl-11" style="edgeStyle=orthogonalEdgeStyle;rounded=0;orthogonalLoop=1;jettySize=auto;html=1;entryX=0.5;entryY=1;entryDx=0;entryDy=0;" edge="1" parent="5AyftZAbdrbTaBpioSLw-1" source="hY0oGXhMn6UQoCSrALOl-2" target="hY0oGXhMn6UQoCSrALOl-4">
          <mxGeometry relative="1" as="geometry" />
        </mxCell>
        <mxCell id="hY0oGXhMn6UQoCSrALOl-12" value="&lt;font style=&quot;font-size: 16px;&quot;&gt;False&lt;/font&gt;" style="edgeLabel;html=1;align=center;verticalAlign=middle;resizable=0;points=[];" vertex="1" connectable="0" parent="hY0oGXhMn6UQoCSrALOl-11">
          <mxGeometry x="-0.4101" y="3" relative="1" as="geometry">
            <mxPoint x="-62" as="offset" />
          </mxGeometry>
        </mxCell>
        <mxCell id="hY0oGXhMn6UQoCSrALOl-2" value="&lt;span style=&quot;font-size: 16px;&quot;&gt;fiammiferi &amp;lt; num_fiammiferi?&lt;/span&gt;" style="strokeWidth=2;html=1;shape=mxgraph.flowchart.decision;whiteSpace=wrap;" vertex="1" parent="5AyftZAbdrbTaBpioSLw-1">
          <mxGeometry x="79.38" y="720" width="261.25" height="120" as="geometry" />
        </mxCell>
        <mxCell id="hY0oGXhMn6UQoCSrALOl-7" style="edgeStyle=orthogonalEdgeStyle;rounded=0;orthogonalLoop=1;jettySize=auto;html=1;entryX=1;entryY=0.5;entryDx=0;entryDy=0;" edge="1" parent="5AyftZAbdrbTaBpioSLw-1" source="hY0oGXhMn6UQoCSrALOl-4" target="5AyftZAbdrbTaBpioSLw-10">
          <mxGeometry relative="1" as="geometry">
            <Array as="points">
              <mxPoint x="700" y="410" />
            </Array>
          </mxGeometry>
        </mxCell>
        <mxCell id="hY0oGXhMn6UQoCSrALOl-4" value="&lt;span style=&quot;font-size: 16px;&quot;&gt;&quot;Inserisci un valore numerico corretto&quot;&lt;/span&gt;" style="html=1;strokeWidth=2;shape=manualInput;whiteSpace=wrap;rounded=1;size=26;arcSize=11;" vertex="1" parent="5AyftZAbdrbTaBpioSLw-1">
          <mxGeometry x="580" y="530" width="360" height="80" as="geometry" />
        </mxCell>
        <mxCell id="hY0oGXhMn6UQoCSrALOl-8" style="edgeStyle=orthogonalEdgeStyle;rounded=0;orthogonalLoop=1;jettySize=auto;html=1;entryX=0.5;entryY=0;entryDx=0;entryDy=0;entryPerimeter=0;" edge="1" parent="5AyftZAbdrbTaBpioSLw-1" source="5AyftZAbdrbTaBpioSLw-10" target="hY0oGXhMn6UQoCSrALOl-1">
          <mxGeometry relative="1" as="geometry" />
        </mxCell>
        <mxCell id="hY0oGXhMn6UQoCSrALOl-9" style="edgeStyle=orthogonalEdgeStyle;rounded=0;orthogonalLoop=1;jettySize=auto;html=1;entryX=0.5;entryY=0;entryDx=0;entryDy=0;entryPerimeter=0;" edge="1" parent="5AyftZAbdrbTaBpioSLw-1" source="hY0oGXhMn6UQoCSrALOl-1" target="hY0oGXhMn6UQoCSrALOl-2">
          <mxGeometry relative="1" as="geometry" />
        </mxCell>
        <mxCell id="hY0oGXhMn6UQoCSrALOl-10" value="&lt;font style=&quot;font-size: 16px;&quot;&gt;True&lt;/font&gt;" style="edgeLabel;html=1;align=center;verticalAlign=middle;resizable=0;points=[];" vertex="1" connectable="0" parent="hY0oGXhMn6UQoCSrALOl-9">
          <mxGeometry x="-0.2017" y="-2" relative="1" as="geometry">
            <mxPoint as="offset" />
          </mxGeometry>
        </mxCell>
        <mxCell id="hY0oGXhMn6UQoCSrALOl-16" style="edgeStyle=orthogonalEdgeStyle;rounded=0;orthogonalLoop=1;jettySize=auto;html=1;entryX=0.547;entryY=1.004;entryDx=0;entryDy=0;entryPerimeter=0;" edge="1" parent="5AyftZAbdrbTaBpioSLw-1" source="hY0oGXhMn6UQoCSrALOl-13" target="hY0oGXhMn6UQoCSrALOl-4">
          <mxGeometry relative="1" as="geometry" />
        </mxCell>
        <mxCell id="hY0oGXhMn6UQoCSrALOl-17" value="&lt;font style=&quot;font-size: 16px;&quot;&gt;False&lt;/font&gt;" style="edgeLabel;html=1;align=center;verticalAlign=middle;resizable=0;points=[];" vertex="1" connectable="0" parent="hY0oGXhMn6UQoCSrALOl-16">
          <mxGeometry x="-0.7334" relative="1" as="geometry">
            <mxPoint x="1" as="offset" />
          </mxGeometry>
        </mxCell>
        <mxCell id="hY0oGXhMn6UQoCSrALOl-18" style="edgeStyle=orthogonalEdgeStyle;rounded=0;orthogonalLoop=1;jettySize=auto;html=1;entryX=0.5;entryY=0;entryDx=0;entryDy=0;" edge="1" parent="5AyftZAbdrbTaBpioSLw-1" source="hY0oGXhMn6UQoCSrALOl-13" target="5AyftZAbdrbTaBpioSLw-12">
          <mxGeometry relative="1" as="geometry" />
        </mxCell>
        <mxCell id="hY0oGXhMn6UQoCSrALOl-19" value="&lt;font style=&quot;font-size: 16px;&quot;&gt;True&lt;/font&gt;" style="edgeLabel;html=1;align=center;verticalAlign=middle;resizable=0;points=[];" vertex="1" connectable="0" parent="hY0oGXhMn6UQoCSrALOl-18">
          <mxGeometry x="-0.0562" relative="1" as="geometry">
            <mxPoint as="offset" />
          </mxGeometry>
        </mxCell>
        <mxCell id="hY0oGXhMn6UQoCSrALOl-13" value="&lt;span style=&quot;font-size: 16px;&quot;&gt;&amp;nbsp;fiammiferi &amp;gt; 0 e fiammiferi &amp;lt; 4?&lt;/span&gt;" style="strokeWidth=2;html=1;shape=mxgraph.flowchart.decision;whiteSpace=wrap;" vertex="1" parent="5AyftZAbdrbTaBpioSLw-1">
          <mxGeometry x="79.38" y="910" width="261.25" height="120" as="geometry" />
        </mxCell>
        <mxCell id="hY0oGXhMn6UQoCSrALOl-14" style="edgeStyle=orthogonalEdgeStyle;rounded=0;orthogonalLoop=1;jettySize=auto;html=1;entryX=0.5;entryY=0;entryDx=0;entryDy=0;entryPerimeter=0;" edge="1" parent="5AyftZAbdrbTaBpioSLw-1" source="hY0oGXhMn6UQoCSrALOl-2" target="hY0oGXhMn6UQoCSrALOl-13">
          <mxGeometry relative="1" as="geometry" />
        </mxCell>
        <mxCell id="hY0oGXhMn6UQoCSrALOl-15" value="&lt;font style=&quot;font-size: 16px;&quot;&gt;True&lt;/font&gt;" style="edgeLabel;html=1;align=center;verticalAlign=middle;resizable=0;points=[];" vertex="1" connectable="0" parent="hY0oGXhMn6UQoCSrALOl-14">
          <mxGeometry x="-0.1661" y="3" relative="1" as="geometry">
            <mxPoint y="1" as="offset" />
          </mxGeometry>
        </mxCell>
      </root>
    </mxGraphModel>
  </diagram>
  <diagram name="Gioco-11-IRL-FRFR" id="WA34xMuzDkQ64p_7hFqc">
    <mxGraphModel dx="3155" dy="1931" grid="1" gridSize="10" guides="1" tooltips="1" connect="1" arrows="1" fold="1" page="1" pageScale="1" pageWidth="1920" pageHeight="1200" math="0" shadow="0">
      <root>
        <mxCell id="sSZvdboSOu6aMfR4jaZI-0" />
        <mxCell id="sSZvdboSOu6aMfR4jaZI-1" parent="sSZvdboSOu6aMfR4jaZI-0" />
        <mxCell id="sSZvdboSOu6aMfR4jaZI-2" style="edgeStyle=orthogonalEdgeStyle;rounded=0;orthogonalLoop=1;jettySize=auto;html=1;exitX=0.5;exitY=1;exitDx=0;exitDy=0;exitPerimeter=0;" edge="1" parent="sSZvdboSOu6aMfR4jaZI-1" source="sSZvdboSOu6aMfR4jaZI-3" target="sSZvdboSOu6aMfR4jaZI-6">
          <mxGeometry relative="1" as="geometry" />
        </mxCell>
        <mxCell id="sSZvdboSOu6aMfR4jaZI-3" value="&lt;font style=&quot;font-size: 16px;&quot;&gt;Start&lt;/font&gt;" style="strokeWidth=2;html=1;shape=mxgraph.flowchart.start_1;whiteSpace=wrap;" vertex="1" parent="sSZvdboSOu6aMfR4jaZI-1">
          <mxGeometry x="160" y="40" width="100" height="60" as="geometry" />
        </mxCell>
        <mxCell id="sSZvdboSOu6aMfR4jaZI-4" value="&lt;font style=&quot;font-size: 16px;&quot;&gt;End&lt;/font&gt;" style="strokeWidth=2;html=1;shape=mxgraph.flowchart.terminator;whiteSpace=wrap;" vertex="1" parent="sSZvdboSOu6aMfR4jaZI-1">
          <mxGeometry x="880" y="1390" width="100" height="60" as="geometry" />
        </mxCell>
        <mxCell id="sSZvdboSOu6aMfR4jaZI-5" style="edgeStyle=orthogonalEdgeStyle;rounded=0;orthogonalLoop=1;jettySize=auto;html=1;" edge="1" parent="sSZvdboSOu6aMfR4jaZI-1" source="sSZvdboSOu6aMfR4jaZI-6" target="sSZvdboSOu6aMfR4jaZI-8">
          <mxGeometry relative="1" as="geometry" />
        </mxCell>
        <mxCell id="sSZvdboSOu6aMfR4jaZI-6" value="&lt;font style=&quot;font-size: 16px;&quot;&gt;num_fiammiferi = 11&lt;/font&gt;" style="shape=parallelogram;html=1;strokeWidth=2;perimeter=parallelogramPerimeter;whiteSpace=wrap;rounded=1;arcSize=12;size=0.23;" vertex="1" parent="sSZvdboSOu6aMfR4jaZI-1">
          <mxGeometry x="105" y="130" width="210" height="80" as="geometry" />
        </mxCell>
        <mxCell id="sSZvdboSOu6aMfR4jaZI-7" style="edgeStyle=orthogonalEdgeStyle;rounded=0;orthogonalLoop=1;jettySize=auto;html=1;entryX=0.5;entryY=0;entryDx=0;entryDy=0;" edge="1" parent="sSZvdboSOu6aMfR4jaZI-1" source="sSZvdboSOu6aMfR4jaZI-8" target="sSZvdboSOu6aMfR4jaZI-9">
          <mxGeometry relative="1" as="geometry" />
        </mxCell>
        <mxCell id="sSZvdboSOu6aMfR4jaZI-8" value="&lt;font style=&quot;font-size: 16px;&quot;&gt;mano_attuale = 1&lt;/font&gt;" style="shape=parallelogram;html=1;strokeWidth=2;perimeter=parallelogramPerimeter;whiteSpace=wrap;rounded=1;arcSize=12;size=0.23;" vertex="1" parent="sSZvdboSOu6aMfR4jaZI-1">
          <mxGeometry x="110" y="240" width="200" height="80" as="geometry" />
        </mxCell>
        <mxCell id="sSZvdboSOu6aMfR4jaZI-9" value="&lt;font style=&quot;font-size: 16px;&quot;&gt;fiammiferi = &quot;inserisci un numero da pescare&quot;&lt;/font&gt;" style="html=1;strokeWidth=2;shape=manualInput;whiteSpace=wrap;rounded=1;size=26;arcSize=11;" vertex="1" parent="sSZvdboSOu6aMfR4jaZI-1">
          <mxGeometry x="85" y="360" width="250" height="100" as="geometry" />
        </mxCell>
        <mxCell id="sSZvdboSOu6aMfR4jaZI-10" style="edgeStyle=orthogonalEdgeStyle;rounded=0;orthogonalLoop=1;jettySize=auto;html=1;entryX=0.5;entryY=0;entryDx=0;entryDy=0;" edge="1" parent="sSZvdboSOu6aMfR4jaZI-1" source="sSZvdboSOu6aMfR4jaZI-11" target="sSZvdboSOu6aMfR4jaZI-12">
          <mxGeometry relative="1" as="geometry" />
        </mxCell>
        <mxCell id="sSZvdboSOu6aMfR4jaZI-11" value="&lt;font style=&quot;font-size: 16px;&quot;&gt;num_fiammiferi = num_fiammiferi - fiammiferi&lt;/font&gt;" style="shape=parallelogram;html=1;strokeWidth=2;perimeter=parallelogramPerimeter;whiteSpace=wrap;rounded=1;arcSize=12;size=0.23;" vertex="1" parent="sSZvdboSOu6aMfR4jaZI-1">
          <mxGeometry x="-27.5" y="1100" width="475" height="90" as="geometry" />
        </mxCell>
        <mxCell id="sSZvdboSOu6aMfR4jaZI-12" value="&lt;font style=&quot;font-size: 16px;&quot;&gt;mano_attuale = mano_attuale + 1&lt;/font&gt;" style="shape=parallelogram;html=1;strokeWidth=2;perimeter=parallelogramPerimeter;whiteSpace=wrap;rounded=1;arcSize=12;size=0.23;" vertex="1" parent="sSZvdboSOu6aMfR4jaZI-1">
          <mxGeometry x="-10" y="1238" width="440" height="80" as="geometry" />
        </mxCell>
        <mxCell id="sSZvdboSOu6aMfR4jaZI-13" style="edgeStyle=orthogonalEdgeStyle;rounded=0;orthogonalLoop=1;jettySize=auto;html=1;entryX=0;entryY=0.5;entryDx=0;entryDy=0;exitX=0;exitY=0.5;exitDx=0;exitDy=0;exitPerimeter=0;" edge="1" parent="sSZvdboSOu6aMfR4jaZI-1" source="sSZvdboSOu6aMfR4jaZI-15" target="sSZvdboSOu6aMfR4jaZI-9">
          <mxGeometry relative="1" as="geometry">
            <Array as="points">
              <mxPoint x="75" y="1420" />
              <mxPoint x="-160" y="1420" />
              <mxPoint x="-160" y="410" />
            </Array>
          </mxGeometry>
        </mxCell>
        <mxCell id="sSZvdboSOu6aMfR4jaZI-14" value="&lt;font style=&quot;font-size: 16px;&quot;&gt;False&lt;/font&gt;" style="edgeLabel;html=1;align=center;verticalAlign=middle;resizable=0;points=[];" vertex="1" connectable="0" parent="sSZvdboSOu6aMfR4jaZI-13">
          <mxGeometry x="-0.8862" y="1" relative="1" as="geometry">
            <mxPoint x="-80" as="offset" />
          </mxGeometry>
        </mxCell>
        <mxCell id="sSZvdboSOu6aMfR4jaZI-15" value="&lt;font style=&quot;font-size: 16px;&quot;&gt;num_fiammiferi == 1?&lt;/font&gt;" style="strokeWidth=2;html=1;shape=mxgraph.flowchart.decision;whiteSpace=wrap;" vertex="1" parent="sSZvdboSOu6aMfR4jaZI-1">
          <mxGeometry x="75.01" y="1365" width="270" height="110" as="geometry" />
        </mxCell>
        <mxCell id="sSZvdboSOu6aMfR4jaZI-16" style="edgeStyle=orthogonalEdgeStyle;rounded=0;orthogonalLoop=1;jettySize=auto;html=1;entryX=0.5;entryY=0;entryDx=0;entryDy=0;entryPerimeter=0;" edge="1" parent="sSZvdboSOu6aMfR4jaZI-1" source="sSZvdboSOu6aMfR4jaZI-12" target="sSZvdboSOu6aMfR4jaZI-15">
          <mxGeometry relative="1" as="geometry" />
        </mxCell>
        <mxCell id="sSZvdboSOu6aMfR4jaZI-17" style="edgeStyle=orthogonalEdgeStyle;rounded=0;orthogonalLoop=1;jettySize=auto;html=1;entryX=0.5;entryY=1;entryDx=0;entryDy=0;" edge="1" parent="sSZvdboSOu6aMfR4jaZI-1" source="sSZvdboSOu6aMfR4jaZI-19" target="sSZvdboSOu6aMfR4jaZI-23">
          <mxGeometry relative="1" as="geometry" />
        </mxCell>
        <mxCell id="sSZvdboSOu6aMfR4jaZI-18" value="&lt;font style=&quot;font-size: 16px;&quot;&gt;True&lt;/font&gt;" style="edgeLabel;html=1;align=center;verticalAlign=middle;resizable=0;points=[];" vertex="1" connectable="0" parent="sSZvdboSOu6aMfR4jaZI-17">
          <mxGeometry x="-0.2661" y="-1" relative="1" as="geometry">
            <mxPoint as="offset" />
          </mxGeometry>
        </mxCell>
        <mxCell id="sSZvdboSOu6aMfR4jaZI-19" value="&lt;span style=&quot;font-size: 16px;&quot;&gt;mano_attuale Ã¨ pari?&lt;/span&gt;" style="strokeWidth=2;html=1;shape=mxgraph.flowchart.decision;whiteSpace=wrap;" vertex="1" parent="sSZvdboSOu6aMfR4jaZI-1">
          <mxGeometry x="490" y="1371" width="210" height="100" as="geometry" />
        </mxCell>
        <mxCell id="sSZvdboSOu6aMfR4jaZI-20" style="edgeStyle=orthogonalEdgeStyle;rounded=0;orthogonalLoop=1;jettySize=auto;html=1;entryX=0;entryY=0.5;entryDx=0;entryDy=0;entryPerimeter=0;" edge="1" parent="sSZvdboSOu6aMfR4jaZI-1" source="sSZvdboSOu6aMfR4jaZI-15" target="sSZvdboSOu6aMfR4jaZI-19">
          <mxGeometry relative="1" as="geometry" />
        </mxCell>
        <mxCell id="sSZvdboSOu6aMfR4jaZI-21" value="&lt;font style=&quot;font-size: 16px;&quot;&gt;True&lt;/font&gt;" style="edgeLabel;html=1;align=center;verticalAlign=middle;resizable=0;points=[];" vertex="1" connectable="0" parent="sSZvdboSOu6aMfR4jaZI-20">
          <mxGeometry x="-0.1077" relative="1" as="geometry">
            <mxPoint as="offset" />
          </mxGeometry>
        </mxCell>
        <mxCell id="sSZvdboSOu6aMfR4jaZI-22" style="edgeStyle=orthogonalEdgeStyle;rounded=0;orthogonalLoop=1;jettySize=auto;html=1;exitX=1;exitY=0.5;exitDx=0;exitDy=0;" edge="1" parent="sSZvdboSOu6aMfR4jaZI-1" source="sSZvdboSOu6aMfR4jaZI-23" target="sSZvdboSOu6aMfR4jaZI-4">
          <mxGeometry relative="1" as="geometry" />
        </mxCell>
        <mxCell id="sSZvdboSOu6aMfR4jaZI-23" value="&lt;font style=&quot;font-size: 16px;&quot;&gt;Vince G1&lt;/font&gt;" style="html=1;strokeWidth=2;shape=manualInput;whiteSpace=wrap;rounded=1;size=26;arcSize=11;" vertex="1" parent="sSZvdboSOu6aMfR4jaZI-1">
          <mxGeometry x="545" y="1220" width="100" height="60" as="geometry" />
        </mxCell>
        <mxCell id="sSZvdboSOu6aMfR4jaZI-24" value="&lt;font style=&quot;font-size: 16px;&quot;&gt;Vince G2&lt;/font&gt;" style="html=1;strokeWidth=2;shape=manualInput;whiteSpace=wrap;rounded=1;size=26;arcSize=11;" vertex="1" parent="sSZvdboSOu6aMfR4jaZI-1">
          <mxGeometry x="545" y="1540" width="100" height="60" as="geometry" />
        </mxCell>
        <mxCell id="sSZvdboSOu6aMfR4jaZI-25" style="edgeStyle=orthogonalEdgeStyle;rounded=0;orthogonalLoop=1;jettySize=auto;html=1;exitX=0.5;exitY=1;exitDx=0;exitDy=0;" edge="1" parent="sSZvdboSOu6aMfR4jaZI-1" source="sSZvdboSOu6aMfR4jaZI-24" target="sSZvdboSOu6aMfR4jaZI-24">
          <mxGeometry relative="1" as="geometry" />
        </mxCell>
        <mxCell id="sSZvdboSOu6aMfR4jaZI-26" style="edgeStyle=orthogonalEdgeStyle;rounded=0;orthogonalLoop=1;jettySize=auto;html=1;entryX=0.517;entryY=0.192;entryDx=0;entryDy=0;entryPerimeter=0;" edge="1" parent="sSZvdboSOu6aMfR4jaZI-1" source="sSZvdboSOu6aMfR4jaZI-19" target="sSZvdboSOu6aMfR4jaZI-24">
          <mxGeometry relative="1" as="geometry" />
        </mxCell>
        <mxCell id="sSZvdboSOu6aMfR4jaZI-27" value="&lt;font style=&quot;font-size: 16px;&quot;&gt;False&lt;/font&gt;" style="edgeLabel;html=1;align=center;verticalAlign=middle;resizable=0;points=[];" vertex="1" connectable="0" parent="sSZvdboSOu6aMfR4jaZI-26">
          <mxGeometry x="-0.3459" relative="1" as="geometry">
            <mxPoint as="offset" />
          </mxGeometry>
        </mxCell>
        <mxCell id="sSZvdboSOu6aMfR4jaZI-28" style="edgeStyle=orthogonalEdgeStyle;rounded=0;orthogonalLoop=1;jettySize=auto;html=1;entryX=0.5;entryY=1;entryDx=0;entryDy=0;entryPerimeter=0;" edge="1" parent="sSZvdboSOu6aMfR4jaZI-1" source="sSZvdboSOu6aMfR4jaZI-24" target="sSZvdboSOu6aMfR4jaZI-4">
          <mxGeometry relative="1" as="geometry" />
        </mxCell>
        <mxCell id="sSZvdboSOu6aMfR4jaZI-29" style="edgeStyle=orthogonalEdgeStyle;rounded=0;orthogonalLoop=1;jettySize=auto;html=1;entryX=0;entryY=0.5;entryDx=0;entryDy=0;exitX=1;exitY=0.5;exitDx=0;exitDy=0;exitPerimeter=0;" edge="1" parent="sSZvdboSOu6aMfR4jaZI-1" source="7aUFgnxmwVvo3rXok-BD-35" target="sSZvdboSOu6aMfR4jaZI-36">
          <mxGeometry relative="1" as="geometry">
            <mxPoint x="345" y="570" as="sourcePoint" />
          </mxGeometry>
        </mxCell>
        <mxCell id="sSZvdboSOu6aMfR4jaZI-30" value="&lt;font style=&quot;font-size: 16px;&quot;&gt;False&lt;/font&gt;" style="edgeLabel;html=1;align=center;verticalAlign=middle;resizable=0;points=[];" vertex="1" connectable="0" parent="sSZvdboSOu6aMfR4jaZI-29">
          <mxGeometry x="-0.3251" relative="1" as="geometry">
            <mxPoint x="26" as="offset" />
          </mxGeometry>
        </mxCell>
        <mxCell id="sSZvdboSOu6aMfR4jaZI-35" style="edgeStyle=orthogonalEdgeStyle;rounded=0;orthogonalLoop=1;jettySize=auto;html=1;entryX=1;entryY=0.5;entryDx=0;entryDy=0;" edge="1" parent="sSZvdboSOu6aMfR4jaZI-1" source="sSZvdboSOu6aMfR4jaZI-36" target="sSZvdboSOu6aMfR4jaZI-9">
          <mxGeometry relative="1" as="geometry">
            <Array as="points">
              <mxPoint x="700" y="410" />
            </Array>
          </mxGeometry>
        </mxCell>
        <mxCell id="sSZvdboSOu6aMfR4jaZI-36" value="&lt;span style=&quot;font-size: 16px;&quot;&gt;&quot;Inserisci un valore numerico corretto&quot;&lt;/span&gt;" style="html=1;strokeWidth=2;shape=manualInput;whiteSpace=wrap;rounded=1;size=26;arcSize=11;" vertex="1" parent="sSZvdboSOu6aMfR4jaZI-1">
          <mxGeometry x="640" y="695" width="360" height="80" as="geometry" />
        </mxCell>
        <mxCell id="sSZvdboSOu6aMfR4jaZI-37" style="edgeStyle=orthogonalEdgeStyle;rounded=0;orthogonalLoop=1;jettySize=auto;html=1;" edge="1" parent="sSZvdboSOu6aMfR4jaZI-1" source="sSZvdboSOu6aMfR4jaZI-9" target="7aUFgnxmwVvo3rXok-BD-35">
          <mxGeometry relative="1" as="geometry">
            <mxPoint x="210" y="515" as="targetPoint" />
          </mxGeometry>
        </mxCell>
        <mxCell id="sSZvdboSOu6aMfR4jaZI-38" style="edgeStyle=orthogonalEdgeStyle;rounded=0;orthogonalLoop=1;jettySize=auto;html=1;entryX=0.5;entryY=0;entryDx=0;entryDy=0;entryPerimeter=0;" edge="1" parent="sSZvdboSOu6aMfR4jaZI-1" target="sSZvdboSOu6aMfR4jaZI-34">
          <mxGeometry relative="1" as="geometry">
            <mxPoint x="210.0050000000001" y="625" as="sourcePoint" />
          </mxGeometry>
        </mxCell>
        <mxCell id="sSZvdboSOu6aMfR4jaZI-39" value="&lt;font style=&quot;font-size: 16px;&quot;&gt;True&lt;/font&gt;" style="edgeLabel;html=1;align=center;verticalAlign=middle;resizable=0;points=[];" vertex="1" connectable="0" parent="sSZvdboSOu6aMfR4jaZI-38">
          <mxGeometry x="-0.2017" y="-2" relative="1" as="geometry">
            <mxPoint as="offset" />
          </mxGeometry>
        </mxCell>
        <mxCell id="sSZvdboSOu6aMfR4jaZI-42" style="edgeStyle=orthogonalEdgeStyle;rounded=0;orthogonalLoop=1;jettySize=auto;html=1;entryX=0.5;entryY=0;entryDx=0;entryDy=0;exitX=0.5;exitY=1;exitDx=0;exitDy=0;exitPerimeter=0;" edge="1" parent="sSZvdboSOu6aMfR4jaZI-1" source="7aUFgnxmwVvo3rXok-BD-35" target="sSZvdboSOu6aMfR4jaZI-11">
          <mxGeometry relative="1" as="geometry">
            <mxPoint x="210" y="1030" as="sourcePoint" />
          </mxGeometry>
        </mxCell>
        <mxCell id="sSZvdboSOu6aMfR4jaZI-43" value="&lt;font style=&quot;font-size: 16px;&quot;&gt;True&lt;/font&gt;" style="edgeLabel;html=1;align=center;verticalAlign=middle;resizable=0;points=[];" vertex="1" connectable="0" parent="sSZvdboSOu6aMfR4jaZI-42">
          <mxGeometry x="-0.0562" relative="1" as="geometry">
            <mxPoint as="offset" />
          </mxGeometry>
        </mxCell>
        <mxCell id="sSZvdboSOu6aMfR4jaZI-45" style="edgeStyle=orthogonalEdgeStyle;rounded=0;orthogonalLoop=1;jettySize=auto;html=1;entryX=0.5;entryY=0;entryDx=0;entryDy=0;entryPerimeter=0;" edge="1" parent="sSZvdboSOu6aMfR4jaZI-1" target="sSZvdboSOu6aMfR4jaZI-44">
          <mxGeometry relative="1" as="geometry">
            <mxPoint x="210" y="840" as="sourcePoint" />
          </mxGeometry>
        </mxCell>
        <mxCell id="sSZvdboSOu6aMfR4jaZI-46" value="&lt;font style=&quot;font-size: 16px;&quot;&gt;True&lt;/font&gt;" style="edgeLabel;html=1;align=center;verticalAlign=middle;resizable=0;points=[];" vertex="1" connectable="0" parent="sSZvdboSOu6aMfR4jaZI-45">
          <mxGeometry x="-0.1661" y="3" relative="1" as="geometry">
            <mxPoint y="1" as="offset" />
          </mxGeometry>
        </mxCell>
        <mxCell id="7aUFgnxmwVvo3rXok-BD-7" style="edgeStyle=orthogonalEdgeStyle;rounded=0;orthogonalLoop=1;jettySize=auto;html=1;" edge="1" parent="sSZvdboSOu6aMfR4jaZI-1" source="7aUFgnxmwVvo3rXok-BD-0" target="7aUFgnxmwVvo3rXok-BD-2">
          <mxGeometry relative="1" as="geometry" />
        </mxCell>
        <mxCell id="7aUFgnxmwVvo3rXok-BD-0" value="&lt;font style=&quot;font-size: 16px;&quot;&gt;Input_check&lt;/font&gt;" style="strokeWidth=2;html=1;shape=mxgraph.flowchart.start_1;whiteSpace=wrap;" vertex="1" parent="sSZvdboSOu6aMfR4jaZI-1">
          <mxGeometry x="1265" y="-20" width="140" height="70" as="geometry" />
        </mxCell>
        <mxCell id="7aUFgnxmwVvo3rXok-BD-12" value="" style="edgeStyle=orthogonalEdgeStyle;rounded=0;orthogonalLoop=1;jettySize=auto;html=1;" edge="1" parent="sSZvdboSOu6aMfR4jaZI-1" source="7aUFgnxmwVvo3rXok-BD-2" target="7aUFgnxmwVvo3rXok-BD-11">
          <mxGeometry relative="1" as="geometry" />
        </mxCell>
        <mxCell id="7aUFgnxmwVvo3rXok-BD-2" value="&lt;font style=&quot;font-size: 16px;&quot;&gt;par1: user_input&lt;/font&gt;&lt;div&gt;&lt;font style=&quot;font-size: 16px;&quot;&gt;par2: remaining_value&lt;br&gt;par3: max_value&lt;/font&gt;&lt;/div&gt;" style="shape=parallelogram;html=1;strokeWidth=2;perimeter=parallelogramPerimeter;whiteSpace=wrap;rounded=1;arcSize=12;size=0.23;fontColor=default;labelBackgroundColor=default;" vertex="1" parent="sSZvdboSOu6aMfR4jaZI-1">
          <mxGeometry x="1190" y="130" width="290" height="150" as="geometry" />
        </mxCell>
        <mxCell id="7aUFgnxmwVvo3rXok-BD-9" value="" style="edgeStyle=orthogonalEdgeStyle;rounded=0;orthogonalLoop=1;jettySize=auto;html=1;" edge="1" parent="sSZvdboSOu6aMfR4jaZI-1" source="7aUFgnxmwVvo3rXok-BD-3" target="7aUFgnxmwVvo3rXok-BD-4">
          <mxGeometry relative="1" as="geometry" />
        </mxCell>
        <mxCell id="7aUFgnxmwVvo3rXok-BD-27" value="&lt;font style=&quot;font-size: 16px;&quot;&gt;True&lt;/font&gt;" style="edgeLabel;html=1;align=center;verticalAlign=middle;resizable=0;points=[];" vertex="1" connectable="0" parent="7aUFgnxmwVvo3rXok-BD-9">
          <mxGeometry x="-0.2977" y="3" relative="1" as="geometry">
            <mxPoint y="1" as="offset" />
          </mxGeometry>
        </mxCell>
        <mxCell id="7aUFgnxmwVvo3rXok-BD-15" value="" style="edgeStyle=orthogonalEdgeStyle;rounded=0;orthogonalLoop=1;jettySize=auto;html=1;entryX=0.81;entryY=-0.071;entryDx=0;entryDy=0;entryPerimeter=0;" edge="1" parent="sSZvdboSOu6aMfR4jaZI-1" source="7aUFgnxmwVvo3rXok-BD-3" target="7aUFgnxmwVvo3rXok-BD-17">
          <mxGeometry relative="1" as="geometry">
            <mxPoint x="1635.1500000000005" y="595" as="targetPoint" />
          </mxGeometry>
        </mxCell>
        <mxCell id="7aUFgnxmwVvo3rXok-BD-24" value="&lt;font style=&quot;font-size: 16px;&quot;&gt;False&lt;/font&gt;" style="edgeLabel;html=1;align=center;verticalAlign=middle;resizable=0;points=[];" vertex="1" connectable="0" parent="7aUFgnxmwVvo3rXok-BD-15">
          <mxGeometry x="-0.3302" y="-2" relative="1" as="geometry">
            <mxPoint as="offset" />
          </mxGeometry>
        </mxCell>
        <mxCell id="7aUFgnxmwVvo3rXok-BD-3" value="&lt;span style=&quot;font-size: 16px;&quot;&gt;user_input Ã¨ un numero intero?&lt;/span&gt;" style="strokeWidth=2;html=1;shape=mxgraph.flowchart.decision;whiteSpace=wrap;" vertex="1" parent="sSZvdboSOu6aMfR4jaZI-1">
          <mxGeometry x="1200" y="530" width="270" height="130" as="geometry" />
        </mxCell>
        <mxCell id="7aUFgnxmwVvo3rXok-BD-10" value="" style="edgeStyle=orthogonalEdgeStyle;rounded=0;orthogonalLoop=1;jettySize=auto;html=1;" edge="1" parent="sSZvdboSOu6aMfR4jaZI-1" source="7aUFgnxmwVvo3rXok-BD-4" target="7aUFgnxmwVvo3rXok-BD-5">
          <mxGeometry relative="1" as="geometry" />
        </mxCell>
        <mxCell id="7aUFgnxmwVvo3rXok-BD-28" value="&lt;font style=&quot;font-size: 16px;&quot;&gt;True&lt;/font&gt;" style="edgeLabel;html=1;align=center;verticalAlign=middle;resizable=0;points=[];" vertex="1" connectable="0" parent="7aUFgnxmwVvo3rXok-BD-10">
          <mxGeometry x="-0.2543" y="-1" relative="1" as="geometry">
            <mxPoint as="offset" />
          </mxGeometry>
        </mxCell>
        <mxCell id="7aUFgnxmwVvo3rXok-BD-22" style="edgeStyle=orthogonalEdgeStyle;rounded=0;orthogonalLoop=1;jettySize=auto;html=1;entryX=0.606;entryY=0.054;entryDx=0;entryDy=0;entryPerimeter=0;" edge="1" parent="sSZvdboSOu6aMfR4jaZI-1" source="7aUFgnxmwVvo3rXok-BD-4" target="7aUFgnxmwVvo3rXok-BD-17">
          <mxGeometry relative="1" as="geometry">
            <mxPoint x="1634.1499999999996" y="800" as="targetPoint" />
          </mxGeometry>
        </mxCell>
        <mxCell id="7aUFgnxmwVvo3rXok-BD-25" value="&lt;font style=&quot;font-size: 16px;&quot;&gt;False&lt;/font&gt;" style="edgeLabel;html=1;align=center;verticalAlign=middle;resizable=0;points=[];" vertex="1" connectable="0" parent="7aUFgnxmwVvo3rXok-BD-22">
          <mxGeometry x="-0.4182" y="5" relative="1" as="geometry">
            <mxPoint as="offset" />
          </mxGeometry>
        </mxCell>
        <mxCell id="7aUFgnxmwVvo3rXok-BD-4" value="&lt;span style=&quot;font-size: 16px;&quot;&gt;user_input &amp;lt; remaining_value?&lt;/span&gt;" style="strokeWidth=2;html=1;shape=mxgraph.flowchart.decision;whiteSpace=wrap;" vertex="1" parent="sSZvdboSOu6aMfR4jaZI-1">
          <mxGeometry x="1185" y="740" width="300" height="120" as="geometry" />
        </mxCell>
        <mxCell id="7aUFgnxmwVvo3rXok-BD-23" value="" style="edgeStyle=orthogonalEdgeStyle;rounded=0;orthogonalLoop=1;jettySize=auto;html=1;" edge="1" parent="sSZvdboSOu6aMfR4jaZI-1" source="7aUFgnxmwVvo3rXok-BD-5" target="7aUFgnxmwVvo3rXok-BD-17">
          <mxGeometry relative="1" as="geometry" />
        </mxCell>
        <mxCell id="7aUFgnxmwVvo3rXok-BD-26" value="&lt;font style=&quot;font-size: 16px;&quot;&gt;False&lt;/font&gt;" style="edgeLabel;html=1;align=center;verticalAlign=middle;resizable=0;points=[];" vertex="1" connectable="0" parent="7aUFgnxmwVvo3rXok-BD-23">
          <mxGeometry x="-0.4064" y="-2" relative="1" as="geometry">
            <mxPoint x="-1" as="offset" />
          </mxGeometry>
        </mxCell>
        <mxCell id="7aUFgnxmwVvo3rXok-BD-5" value="&lt;span style=&quot;font-size: 16px;&quot;&gt;&amp;nbsp;user_input &amp;gt; 0 e user_input &amp;lt;= max_value?&lt;/span&gt;" style="strokeWidth=2;html=1;shape=mxgraph.flowchart.decision;whiteSpace=wrap;" vertex="1" parent="sSZvdboSOu6aMfR4jaZI-1">
          <mxGeometry x="1142.5" y="920" width="385" height="200" as="geometry" />
        </mxCell>
        <mxCell id="7aUFgnxmwVvo3rXok-BD-13" value="" style="edgeStyle=orthogonalEdgeStyle;rounded=0;orthogonalLoop=1;jettySize=auto;html=1;" edge="1" parent="sSZvdboSOu6aMfR4jaZI-1" source="7aUFgnxmwVvo3rXok-BD-11" target="7aUFgnxmwVvo3rXok-BD-3">
          <mxGeometry relative="1" as="geometry" />
        </mxCell>
        <mxCell id="7aUFgnxmwVvo3rXok-BD-11" value="&lt;span style=&quot;font-size: 16px;&quot;&gt;result = true&lt;/span&gt;" style="shape=parallelogram;html=1;strokeWidth=2;perimeter=parallelogramPerimeter;whiteSpace=wrap;rounded=1;arcSize=12;size=0.23;fontColor=default;labelBackgroundColor=default;" vertex="1" parent="sSZvdboSOu6aMfR4jaZI-1">
          <mxGeometry x="1230" y="370" width="210" height="70" as="geometry" />
        </mxCell>
        <mxCell id="7aUFgnxmwVvo3rXok-BD-32" value="" style="edgeStyle=orthogonalEdgeStyle;rounded=0;orthogonalLoop=1;jettySize=auto;html=1;entryX=1;entryY=0.5;entryDx=0;entryDy=0;entryPerimeter=0;" edge="1" parent="sSZvdboSOu6aMfR4jaZI-1" source="7aUFgnxmwVvo3rXok-BD-17" target="7aUFgnxmwVvo3rXok-BD-29">
          <mxGeometry relative="1" as="geometry">
            <mxPoint x="1715" y="1135" as="targetPoint" />
          </mxGeometry>
        </mxCell>
        <mxCell id="7aUFgnxmwVvo3rXok-BD-17" value="&lt;span style=&quot;font-size: 16px;&quot;&gt;result = false&lt;/span&gt;" style="shape=parallelogram;html=1;strokeWidth=2;perimeter=parallelogramPerimeter;whiteSpace=wrap;rounded=1;arcSize=12;size=0.23;fontColor=default;labelBackgroundColor=default;" vertex="1" parent="sSZvdboSOu6aMfR4jaZI-1">
          <mxGeometry x="1610" y="985" width="210" height="70" as="geometry" />
        </mxCell>
        <mxCell id="7aUFgnxmwVvo3rXok-BD-29" value="return result" style="strokeWidth=2;html=1;shape=mxgraph.flowchart.terminator;whiteSpace=wrap;" vertex="1" parent="sSZvdboSOu6aMfR4jaZI-1">
          <mxGeometry x="1527.5" y="1200" width="100" height="60" as="geometry" />
        </mxCell>
        <mxCell id="7aUFgnxmwVvo3rXok-BD-33" style="edgeStyle=orthogonalEdgeStyle;rounded=0;orthogonalLoop=1;jettySize=auto;html=1;entryX=0;entryY=0.5;entryDx=0;entryDy=0;entryPerimeter=0;" edge="1" parent="sSZvdboSOu6aMfR4jaZI-1" source="7aUFgnxmwVvo3rXok-BD-5" target="7aUFgnxmwVvo3rXok-BD-29">
          <mxGeometry relative="1" as="geometry" />
        </mxCell>
        <mxCell id="7aUFgnxmwVvo3rXok-BD-35" value="&lt;span style=&quot;font-size: 16px;&quot;&gt;Input_check(fiammiferi, numfiammiferi, 3) == true&lt;/span&gt;" style="strokeWidth=2;html=1;shape=mxgraph.flowchart.decision;whiteSpace=wrap;" vertex="1" parent="sSZvdboSOu6aMfR4jaZI-1">
          <mxGeometry x="5" y="650" width="410" height="170" as="geometry" />
        </mxCell>
      </root>
    </mxGraphModel>
  </diagram>
</mxfile>
